<svg width="26" height="21" viewBox="0 0 26 21" fill="none" xmlns="http://www.w3.org/2000/svg">
<path d="M22.3333 6.33333H8.99999C7.52724 6.33333 6.33333 7.52724 6.33333 8.99999V17C6.33333 18.4728 7.52724 19.6667 8.99999 19.6667H22.3333C23.8061 19.6667 25 18.4728 25 17V8.99999C25 7.52724 23.8061 6.33333 22.3333 6.33333Z" stroke="#1A194D" stroke-width="2" stroke-linecap="round" stroke-linejoin="round"/>
<path d="M15.6667 15.6667C17.1394 15.6667 18.3333 14.4728 18.3333 13C18.3333 11.5272 17.1394 10.3333 15.6667 10.3333C14.1939 10.3333 13 11.5272 13 13C13 14.4728 14.1939 15.6667 15.6667 15.6667Z" stroke="#1A194D" stroke-width="2" stroke-linecap="round" stroke-linejoin="round"/>
<path d="M19.6667 6.33333V3.66667C19.6667 2.95942 19.3857 2.28115 18.8856 1.78105C18.3855 1.28095 17.7072 1 17 1H3.66667C2.95942 1 2.28115 1.28095 1.78105 1.78105C1.28095 2.28115 1 2.95942 1 3.66667V11.6667C1 12.3739 1.28095 13.0522 1.78105 13.5523C2.28115 14.0524 2.95942 14.3333 3.66667 14.3333H6.33333" stroke="#1A194D" stroke-width="2" stroke-linecap="round" stroke-linejoin="round"/>
</svg>
