<svg width="0" height="0" class="hidden">
  <symbol fill="none" xmlns="http://www.w3.org/2000/svg" viewBox="0 0 32 32" id="logout">
    <g clip-path="url(#clip0_3_145)">
      <path d="M18.6667 10.6666V7.99998C18.6667 7.29274 18.3857 6.61446 17.8856 6.11436C17.3855 5.61426 16.7072 5.33331 16 5.33331H6.66667C5.95942 5.33331 5.28115 5.61426 4.78105 6.11436C4.28095 6.61446 4 7.29274 4 7.99998V24C4 24.7072 4.28095 25.3855 4.78105 25.8856C5.28115 26.3857 5.95942 26.6666 6.66667 26.6666H16C16.7072 26.6666 17.3855 26.3857 17.8856 25.8856C18.3857 25.3855 18.6667 24.7072 18.6667 24V21.3333" stroke="currentColor" stroke-width="2" stroke-linecap="round" stroke-linejoin="round"></path>
      <path d="M9.33334 16H28M24 20L28 16L24 12" stroke="currentColor" stroke-width="2" stroke-linecap="round" stroke-linejoin="round"></path>
    </g>
    <defs>
      <clipPath id="clip0_3_145">
        <rect width="32" height="32" fill="white"></rect>
      </clipPath>
    </defs>
  </symbol>
  <symbol fill="none" xmlns="http://www.w3.org/2000/svg" viewBox="0 0 24 24" id="apps">
    <path d="M19.6667 1H3.66667C2.19391 1 1 2.19391 1 3.66667V19.6667C1 21.1394 2.19391 22.3333 3.66667 22.3333H19.6667C21.1394 22.3333 22.3333 21.1394 22.3333 19.6667V3.66667C22.3333 2.19391 21.1394 1 19.6667 1Z" stroke="currentColor" stroke-width="2" stroke-linecap="round" stroke-linejoin="round"></path>
    <path d="M6.33334 17V17.0133" stroke="currentColor" stroke-width="2" stroke-linecap="round" stroke-linejoin="round"></path>
    <path d="M6.33334 11.6667V11.68" stroke="currentColor" stroke-width="2" stroke-linecap="round" stroke-linejoin="round"></path>
    <path d="M6.33334 6.33334V6.34668" stroke="currentColor" stroke-width="2" stroke-linecap="round" stroke-linejoin="round"></path>
    <path d="M17 17V17.0133" stroke="currentColor" stroke-width="2" stroke-linecap="round" stroke-linejoin="round"></path>
    <path d="M17 11.6667V11.68" stroke="currentColor" stroke-width="2" stroke-linecap="round" stroke-linejoin="round"></path>
    <path d="M17 6.33334V6.34668" stroke="currentColor" stroke-width="2" stroke-linecap="round" stroke-linejoin="round"></path>
    <path d="M11.6667 6.33334V6.34668" stroke="currentColor" stroke-width="2" stroke-linecap="round" stroke-linejoin="round"></path>
    <path d="M11.6667 17V17.0133" stroke="currentColor" stroke-width="2" stroke-linecap="round" stroke-linejoin="round"></path>
  </symbol>
  <symbol fill="none" xmlns="http://www.w3.org/2000/svg" viewBox="0 0 26 21" id="billing">
    <path d="M22.3333 6.33333H8.99999C7.52724 6.33333 6.33333 7.52724 6.33333 8.99999V17C6.33333 18.4728 7.52724 19.6667 8.99999 19.6667H22.3333C23.8061 19.6667 25 18.4728 25 17V8.99999C25 7.52724 23.8061 6.33333 22.3333 6.33333Z" stroke="currentColor" stroke-width="2" stroke-linecap="round" stroke-linejoin="round"></path>
    <path d="M15.6667 15.6667C17.1394 15.6667 18.3333 14.4728 18.3333 13C18.3333 11.5272 17.1394 10.3333 15.6667 10.3333C14.1939 10.3333 13 11.5272 13 13C13 14.4728 14.1939 15.6667 15.6667 15.6667Z" stroke="currentColor" stroke-width="2" stroke-linecap="round" stroke-linejoin="round"></path>
    <path d="M19.6667 6.33333V3.66667C19.6667 2.95942 19.3857 2.28115 18.8856 1.78105C18.3855 1.28095 17.7072 1 17 1H3.66667C2.95942 1 2.28115 1.28095 1.78105 1.78105C1.28095 2.28115 1 2.95942 1 3.66667V11.6667C1 12.3739 1.28095 13.0522 1.78105 13.5523C2.28115 14.0524 2.95942 14.3333 3.66667 14.3333H6.33333" stroke="currentColor" stroke-width="2" stroke-linecap="round" stroke-linejoin="round"></path>
  </symbol>
  <symbol fill="none" xmlns="http://www.w3.org/2000/svg" viewBox="0 0 24 24" id="general">
    <path d="M6.33334 6.33333H17V17H6.33334V6.33333Z" stroke="currentColor" stroke-width="2" stroke-linecap="round" stroke-linejoin="round"></path>
    <path d="M19.6667 1H3.66667C2.19391 1 1 2.19391 1 3.66667V19.6667C1 21.1394 2.19391 22.3333 3.66667 22.3333H19.6667C21.1394 22.3333 22.3333 21.1394 22.3333 19.6667V3.66667C22.3333 2.19391 21.1394 1 19.6667 1Z" stroke="currentColor" stroke-width="2" stroke-linecap="round" stroke-linejoin="round"></path>
  </symbol>
  <symbol fill="none" xmlns="http://www.w3.org/2000/svg" viewBox="0 0 26 21" id="invitations">
    <path d="M22.3334 1H3.66677C2.19401 1 1.00011 2.19391 1.00011 3.66667V17C1.00011 18.4728 2.19401 19.6667 3.66677 19.6667H22.3334C23.8062 19.6667 25.0001 18.4728 25.0001 17V3.66667C25.0001 2.19391 23.8062 1 22.3334 1Z" stroke="currentColor" stroke-width="2" stroke-linecap="round" stroke-linejoin="round"></path>
    <path d="M1.00011 3.66667L13.0001 11.6667L25.0001 3.66667" stroke="currentColor" stroke-width="2" stroke-linecap="round" stroke-linejoin="round"></path>
  </symbol>
  <symbol fill="none" xmlns="http://www.w3.org/2000/svg" viewBox="0 0 21 26" id="password">
    <path d="M17 11.6667H3.66667C2.19391 11.6667 1 12.8606 1 14.3333V22.3333C1 23.8061 2.19391 25 3.66667 25H17C18.4728 25 19.6667 23.8061 19.6667 22.3333V14.3333C19.6667 12.8606 18.4728 11.6667 17 11.6667Z" stroke="currentColor" stroke-width="2" stroke-linecap="round" stroke-linejoin="round"></path>
    <path d="M10.3333 19.6667C11.0697 19.6667 11.6667 19.0697 11.6667 18.3333C11.6667 17.597 11.0697 17 10.3333 17C9.59695 17 9 17.597 9 18.3333C9 19.0697 9.59695 19.6667 10.3333 19.6667Z" stroke="currentColor" stroke-width="2" stroke-linecap="round" stroke-linejoin="round"></path>
    <path d="M5 11.6667V6.33333C5 4.91885 5.5619 3.56229 6.5621 2.5621C7.56229 1.5619 8.91885 1 10.3333 1C11.7478 1 13.1044 1.5619 14.1046 2.5621C15.1048 3.56229 15.6667 4.91885 15.6667 6.33333V11.6667" stroke="currentColor" stroke-width="2" stroke-linecap="round" stroke-linejoin="round"></path>
  </symbol>
</svg>