<svg width="21" height="26" viewBox="0 0 21 26" fill="none" xmlns="http://www.w3.org/2000/svg">
<path d="M17 11.6667H3.66667C2.19391 11.6667 1 12.8606 1 14.3333V22.3333C1 23.8061 2.19391 25 3.66667 25H17C18.4728 25 19.6667 23.8061 19.6667 22.3333V14.3333C19.6667 12.8606 18.4728 11.6667 17 11.6667Z" stroke="#62618F" stroke-width="2" stroke-linecap="round" stroke-linejoin="round"/>
<path d="M10.3333 19.6667C11.0697 19.6667 11.6667 19.0697 11.6667 18.3333C11.6667 17.597 11.0697 17 10.3333 17C9.59695 17 9 17.597 9 18.3333C9 19.0697 9.59695 19.6667 10.3333 19.6667Z" stroke="#62618F" stroke-width="2" stroke-linecap="round" stroke-linejoin="round"/>
<path d="M5 11.6667V6.33333C5 4.91885 5.5619 3.56229 6.5621 2.5621C7.56229 1.5619 8.91885 1 10.3333 1C11.7478 1 13.1044 1.5619 14.1046 2.5621C15.1048 3.56229 15.6667 4.91885 15.6667 6.33333V11.6667" stroke="#62618F" stroke-width="2" stroke-linecap="round" stroke-linejoin="round"/>
</svg>
