<svg width="23" height="23" viewBox="0 0 23 23" fill="none" xmlns="http://www.w3.org/2000/svg">
<path d="M15.1771 6.13525H15.1892" stroke="#2C3E50" stroke-width="1.9375" stroke-linecap="round" stroke-linejoin="round"/>
<path d="M17.7604 0.96875H4.84375C2.70365 0.96875 0.96875 2.70365 0.96875 4.84375V17.7604C0.96875 19.9005 2.70365 21.6354 4.84375 21.6354H17.7604C19.9005 21.6354 21.6354 19.9005 21.6354 17.7604V4.84375C21.6354 2.70365 19.9005 0.96875 17.7604 0.96875Z" stroke="#2C3E50" stroke-width="1.9375" stroke-linecap="round" stroke-linejoin="round"/>
<path d="M0.96875 15.1771L6.13542 10.0104C6.72449 9.44356 7.39271 9.14514 8.07292 9.14514C8.75312 9.14514 9.42134 9.44356 10.0104 10.0104L16.4687 16.4687" stroke="#2C3E50" stroke-width="1.9375" stroke-linecap="round" stroke-linejoin="round"/>
<path d="M13.8854 13.8853L15.1771 12.5936C15.7661 12.0268 16.4344 11.7284 17.1146 11.7284C17.7948 11.7284 18.463 12.0268 19.0521 12.5936L21.6354 15.177" stroke="#2C3E50" stroke-width="1.9375" stroke-linecap="round" stroke-linejoin="round"/>
</svg>
